<?xml version="1.0" ?>
<!DOCTYPE svg  PUBLIC '-//W3C//DTD SVG 1.1//EN'  'http://www.w3.org/Graphics/SVG/1.1/DTD/svg11.dtd'>
<!-- Uploaded to: SVG Repo, www.svgrepo.com, Generator: SVG Repo Mixer Tools -->
<svg width="800px" height="800px" viewBox="0 0 1024 1024" enable-background="new 0 0 1024 1024" id="pointer-screen" version="1.1" xml:space="preserve" xmlns="http://www.w3.org/2000/svg" xmlns:xlink="http://www.w3.org/1999/xlink">
<g>
<g id="pointer-screen-label">
<rect fill="#F16750" height="1024" width="1024"/>
</g>
<g id="pointer-screen-pointer-screen">
<g id="pointer-screen-screen">
<g>
<path d="M778.9395,675.4805H245.0601c-16.5552,0-30.0201-13.4611-30.0201-30.0205v-59.2998      c0-5.6602,4.585-10.2403,10.2403-10.2403c5.6548,0,10.2397,4.5801,10.2397,10.2403V645.46c0,5.2597,4.2798,9.54,9.5401,9.54      h533.8794c5.2607,0,9.541-4.2803,9.541-9.54v-59.2998c0-5.6602,4.584-10.2403,10.2392-10.2403      c5.6553,0,10.2404,4.5801,10.2404,10.2403V645.46C808.96,662.0195,795.4951,675.4805,778.9395,675.4805L778.9395,675.4805z" fill="#FFFFFF"/>
</g>
<g>
<path d="M798.7197,596.4004c-5.6552,0-10.2392-4.5801-10.2392-10.2402V299.4399      c0-5.2597-4.2803-9.5395-9.541-9.5395H245.0601c-5.2603,0-9.5401,4.2798-9.5401,9.5395v286.7203      c0,5.6601-4.5849,10.2402-10.2397,10.2402c-5.6553,0-10.2403-4.5801-10.2403-10.2402V299.4399      c0-16.56,13.4649-30.02,30.0201-30.02h533.8794c16.5555,0,30.0205,13.46,30.0205,30.02v286.7203      C808.96,591.8203,804.375,596.4004,798.7197,596.4004L798.7197,596.4004z" fill="#FFFFFF"/>
</g>
<g>
<path d="M581.2197,754.5801H442.7998c-5.6548,0-10.2397-4.5801-10.2397-10.2403v-79.0996      c0-5.6601,4.5849-10.2402,10.2397-10.2402h138.4199c5.6553,0,10.2404,4.5801,10.2404,10.2402v79.0996      C591.46,750,586.875,754.5801,581.2197,754.5801L581.2197,754.5801z M453.04,734.0996h117.94v-58.6191H453.04V734.0996      L453.04,734.0996z" fill="#FFFFFF"/>
</g>
<g>
<path d="M798.7197,596.4004H225.2803c-5.6553,0-10.2403-4.5801-10.2403-10.2402      c0-5.6602,4.585-10.2403,10.2403-10.2403h573.4393c5.6553,0,10.2404,4.5801,10.2404,10.2403      C808.96,591.8203,804.375,596.4004,798.7197,596.4004L798.7197,596.4004z" fill="#FFFFFF"/>
</g>
<g>
<path d="M620.7803,756.2803H403.2402c-5.6552,0-10.2402-4.5801-10.2402-10.2403      c0-5.6601,4.585-10.2402,10.2402-10.2402h217.5401c5.6552,0,10.2392,4.5801,10.2392,10.2402      C631.0195,751.7002,626.4355,756.2803,620.7803,756.2803L620.7803,756.2803z" fill="#FFFFFF"/>
</g>
<g>
<path d="M521.8999,623.2197c0,5.46-4.4399,9.9004-9.8999,9.9004c-5.46,0-9.8799-4.4404-9.8799-9.9004      c0-5.4599,4.4199-9.8799,9.8799-9.8799C517.46,613.3398,521.8999,617.7598,521.8999,623.2197z" fill="#FFFFFF"/>
</g>
</g>
<g id="pointer-screen-pointer">
<g>
<g>
<g>
<polygon fill="#FFFFFF" points="461.7598,416.52 416.8398,371.6001 431.3198,357.1201 476.2402,402.04 461.7598,416.52               "/>
</g>
<g>
<polygon fill="#FFFFFF" points="518.2197,386.8203 497.7402,386.8203 497.7402,321.9399 518.2197,321.9399 518.2197,386.8203               "/>
</g>
<g>
<polygon fill="#FFFFFF" points="449.5,458.5 382.1396,458.5 382.1396,438.0195 449.5,438.0195 449.5,458.5       "/>
</g>
<g>
<polygon fill="#FFFFFF" points="554.2002,416.52 539.7197,402.04 584.6396,357.1201 599.1201,371.6001 554.2002,416.52               "/>
</g>
<g>
<polygon fill="#FFFFFF" points="431.3198,539.4004 416.8398,524.9199 461.7598,480 476.2402,494.4805 431.3198,539.4004               "/>
</g>
</g>
</g>
<g>
<g>
<g>
<g>
<path d="M571.0352,628.2305L478.145,418.4004l209.7945,92.8994l-83.0801,33.8408L571.0352,628.2305         L571.0352,628.2305z M518.335,458.5996l51.9101,117.25l18.8945-46.4297L635.5801,510.5L518.335,458.5996L518.335,458.5996z" fill="#FFFFFF"/>
</g>
</g>
</g>
</g>
</g>
</g>
</g>
</svg>